<?xml version="1.0" encoding="utf-8"?>
<!-- Generator: Adobe Illustrator 15.1.0, SVG Export Plug-In . SVG Version: 6.00 Build 0)  -->
<!DOCTYPE svg PUBLIC "-//W3C//DTD SVG 1.1//EN" "http://www.w3.org/Graphics/SVG/1.1/DTD/svg11.dtd">
<svg version="1.1" id="Layer_1" xmlns:v="https://vecta.io/nano"
	 xmlns="http://www.w3.org/2000/svg" xmlns:xlink="http://www.w3.org/1999/xlink" x="0px" y="0px" width="612px" height="118.833px"
	 viewBox="0 0 612 118.833" enable-background="new 0 0 612 118.833" xml:space="preserve">
<g>
	<defs>
		<rect id="SVGID_1_" x="-13.933" y="10" width="105.433" height="80.5"/>
	</defs>
	<clipPath id="SVGID_2_">
		<use xlink:href="#SVGID_1_"  overflow="visible"/>
	</clipPath>
	<path clip-path="url(#SVGID_2_)" fill="#FFFFFF" d="M82,77.146c-4.12,0.584-8.207,2.019-12.347,4.34V26.618
		c1.184-0.146,2.362-0.22,3.52-0.22c2.96,0,5.9,0.494,8.83,1.464v49.284H82z M93.5,31.552v45.473
		c1.084-0.114,2.163-0.183,3.225-0.183c5.586,0,11.056,1.523,16.623,4.645V26.62c-1.184-0.146-2.362-0.22-3.52-0.22
		c-5.465,0-10.825,1.642-16.33,4.98v0.173L93.5,31.552z M115.718,31.364v55.429l-3.162-1.772c-5.315-2.979-10.493-4.431-15.83-4.431
		c-1.06,0-2.19,0.068-3.353,0.201l-1.205,0.137v0.152l-0.667-0.078l-0.667,0.078v-0.152l-1.205-0.137
		c-0.84-0.096-1.65-0.145-2.44-0.17c-0.568,0.617-1.087,1.319-1.52,1.973L82,88.116v-7.201c-3.855,0.574-7.67,1.926-11.555,4.104
		l-3.162,1.772v-55.43H63.16V90.5h24.303l2.867-4.431h2.343l2.866,4.431h24.303V31.364H115.718L115.718,31.364z M84,81.486V26.618
		c0.44-0.146,0.88-0.22,1.3-0.22c2.07,0,4.102,1.7,6.2,5.153v45.5c-0.44-0.135-0.88-0.211-1.312-0.211
		C88.108,76.842,86.072,78.366,84,81.486z"/>
</g>
<g enable-background="new    ">
	<path fill="#FFFFFF" d="M149.087,85.841c0,3.455-1.728,5.279-5.184,5.279h-9.119c-3.072,0-4.416-1.439-5.856-4.319l-17.375-35.326
		c-1.344-2.88-3.264-7.007-4.032-10.271h-1.056c0.479,3.455,0.672,7.104,0.672,10.559v39.357H93.22V30.165
		c0-3.455,1.824-5.279,5.279-5.279h8.927c3.072,0,4.416,1.44,5.856,4.32l16.799,34.269c1.439,2.88,3.264,6.912,4.799,10.655h0.96
		c-0.288-3.743-0.576-7.391-0.576-11.135V24.885h13.823V85.841z"/>
	<path fill="#FFFFFF" d="M208.319,67.506c0,18.143-6.624,24.862-24.286,24.862c-17.759,0-24.382-6.72-24.382-24.862
		c0-18.238,6.624-25.055,24.382-25.055C201.695,42.452,208.319,49.268,208.319,67.506z M174.529,67.506
		c0,11.327,2.016,14.207,9.503,14.207c7.295,0,9.407-2.88,9.407-14.207c0-11.52-2.112-14.399-9.407-14.399
		C176.545,53.107,174.529,55.987,174.529,67.506z"/>
	<path fill="#FFFFFF" d="M249.024,87.761c-0.672,2.016-2.4,3.359-4.607,3.359h-12.287c-2.208,0-3.936-1.344-4.608-3.359
		l-15.551-43.965h15.071l8.543,29.661c0.768,2.784,1.44,5.664,2.016,8.448h1.248c0.768-2.784,1.44-5.664,2.208-8.448l8.543-29.661
		h14.975L249.024,87.761z"/>
	<path fill="#FFFFFF" d="M313.631,59.827v31.294h-11.231l-1.44-7.199c-3.36,3.936-9.119,8.352-17.471,8.352
		c-8.832,0-15.455-4.8-15.455-13.632v-4.799c0-7.584,5.472-12,14.495-12h16.895v-2.111c-0.096-4.8-1.728-6.144-7.776-6.144
		c-4.511,0-12.383,0.288-19.966,0.768l-1.344-9.599c6.911-1.248,18.046-2.305,24.67-2.305
		C307.199,42.452,313.631,46.484,313.631,59.827z M282.049,76.721c0,3.36,1.728,4.896,5.567,4.896c3.264,0,7.776-1.536,11.808-4.608
		v-6.623h-12.767c-3.456,0.096-4.608,1.824-4.608,4.512V76.721z"/>
	<path fill="#FFFFFF" d="M371.9,67.026c0,14.495-4.223,25.247-23.134,25.247c-6.72,0-18.239-1.152-24.095-3.648V23.925h14.207
		l0.097,15.071c0,3.936-0.288,7.68-1.345,11.231c4.608-4.8,10.656-7.776,16.896-7.776C366.717,42.452,371.9,49.459,371.9,67.026z
		 M357.311,67.123c0-10.271-1.44-13.343-8.447-13.343c-3.744,0-6.528,1.728-10.08,4.031l0.096,22.942
		c3.168,0.768,6.912,1.056,9.6,0.96C354.91,81.521,357.311,78.354,357.311,67.123z"/>
	<path fill="#FFFFFF" d="M428.349,67.506c0,18.143-6.624,24.862-24.286,24.862c-17.759,0-24.383-6.72-24.383-24.862
		c0-18.238,6.624-25.055,24.383-25.055C421.725,42.452,428.349,49.268,428.349,67.506z M394.559,67.506
		c0,11.327,2.017,14.207,9.504,14.207c7.295,0,9.407-2.88,9.407-14.207c0-11.52-2.112-14.399-9.407-14.399
		C396.575,53.107,394.559,55.987,394.559,67.506z"/>
	<path fill="#FFFFFF" d="M484.699,67.506c0,18.143-6.623,24.862-24.286,24.862c-17.759,0-24.382-6.72-24.382-24.862
		c0-18.238,6.623-25.055,24.382-25.055C478.076,42.452,484.699,49.268,484.699,67.506z M450.91,67.506
		c0,11.327,2.016,14.207,9.503,14.207c7.296,0,9.407-2.88,9.407-14.207c0-11.52-2.111-14.399-9.407-14.399
		C452.926,53.107,450.91,55.987,450.91,67.506z"/>
	<path fill="#FFFFFF" d="M507.934,69.138c0.384,2.496,0.672,4.991,0.672,7.104v14.879h-14.207V23.925h14.207v27.742
		c0,2.976-0.192,5.855-0.672,8.64h4.416l11.711-16.511h15.935L527.708,60.21c-1.151,1.92-3.264,3.744-4.416,4.512v0.192
		c1.152,0.768,3.265,3.071,4.416,5.088l13.919,21.118h-15.935L512.35,69.138H507.934z"/>
</g>
</svg>
